<?xml version="1.0" encoding="UTF-8" standalone="no"?>
<!-- Created with Inkscape (http://www.inkscape.org/) -->

<svg
   width="128mm"
   height="128mm"
   viewBox="0 0 128 128"
   version="1.1"
   id="svg1"
   xmlns="http://www.w3.org/2000/svg"
   xmlns:svg="http://www.w3.org/2000/svg">
  <defs
     id="defs1" />
  <g
     id="layer1">
    <path
       id="path3"
       style="display:inline;fill:#f8f9fa;fill-opacity:1;stroke-width:0.415715"
       d="M 63.709805,3.5698078 A 60.854164,60.854164 0 0 0 2.8556396,64.423973 60.854164,60.854164 0 0 0 63.709805,125.27814 60.854164,60.854164 0 0 0 124.56397,64.423973 60.854164,60.854164 0 0 0 63.709805,3.5698078 Z M 63.591982,12.62972 A 51.59375,51.59375 0 0 1 115.18573,64.223468 51.59375,51.59375 0 0 1 63.591982,115.81722 51.59375,51.59375 0 0 1 11.998234,64.223468 51.59375,51.59375 0 0 1 63.591982,12.62972 Z" />
    <path
       id="path1"
       style="display:none;fill:#4d4d4d;stroke-width:0.514431"
       d="M 64.412468,3.1507573 C 30.80364,3.1507568 3.5583022,30.396095 3.5583031,64.004923 3.5583014,97.613751 30.80364,124.85909 64.412468,124.85909 c 33.608827,0 60.854162,-27.24534 60.854162,-60.854167 0,-33.608827 -27.245335,-60.8541646 -60.854162,-60.8541657 z m 0.153996,12.2832297 c 29.955696,-2e-6 49.955936,18.572348 49.955936,48.528044 0,29.955698 -20.000238,49.241999 -49.955936,49.241989 -29.955697,0 -49.24199,-18.57235 -49.241986,-48.528047 0,-29.955694 19.286292,-49.241986 49.241986,-49.241986 z" />
    <path
       d="M 76.344361,92.912853 64.041968,78.366229 51.583849,92.912853 c -0.968965,1.849082 -1.747597,3.180422 -2.335897,3.994029 -0.553694,0.795107 -1.539962,1.516253 -2.958804,2.163429 -1.418841,0.628677 -3.304862,0.943039 -5.658062,0.943039 -1.903323,0 -3.477891,-0.194152 -4.723705,-0.582472 -1.211205,-0.369817 -2.197473,-0.8968 -2.958802,-1.580965 -0.76133,-0.702655 -1.384236,-1.525494 -1.868717,-2.468534 -0.484484,-0.961522 -0.917057,-1.849082 -1.297722,-2.66268 L 17.116386,65.342966 c -0.76133,-1.590215 -1.141995,-2.801367 -1.141995,-3.633456 0,-1.053979 0.692117,-1.941541 2.076354,-2.662685 1.384235,-0.721143 3.097226,-1.081715 5.138974,-1.081715 2.803077,0 4.689097,0.480762 5.658061,1.442287 0.968965,0.961526 1.81681,2.357586 2.543534,4.188182 l 9.966495,23.742273 c 0,0 5.414113,-6.84542 8.203166,-10.248263 0.923152,-1.126312 1.464316,-2.380192 2.823526,-3.365526 1.225949,-0.888728 2.766597,-1.7345 4.637819,-2.172724 2.161967,-0.506312 4.667815,-0.388849 7.019648,-0.388517 1.410567,1.98e-4 2.839196,0.05227 4.209977,0.234209 1.107093,0.146938 2.261471,0.316016 3.18046,0.684242 1.65452,0.662943 2.77178,1.668534 3.87378,2.614613 4.605194,3.953609 11.264216,12.641966 11.264216,12.641966 L 96.5369,63.595579 c 0.484479,-1.238888 0.934357,-2.209659 1.349616,-2.912312 0.449888,-0.702653 1.193913,-1.331343 2.232094,-1.886068 1.07278,-0.554726 2.61277,-0.832089 4.6199,-0.832089 2.00715,0 3.70284,0.360572 5.08707,1.081715 1.41884,0.702654 2.12826,1.590215 2.12826,2.662685 0,0.758126 -0.38067,1.969277 -1.142,3.633456 L 98.14607,92.718699 c -0.865146,1.849082 -1.59187,3.20817 -2.180171,4.077231 -0.553691,0.850579 -1.522659,1.599465 -2.906894,2.246649 -1.34963,0.647169 -3.270257,0.970771 -5.761881,0.970771 -2.3532,0 -4.239221,-0.314362 -5.658063,-0.943039 -1.41884,-0.628685 -2.405108,-1.331341 -2.958802,-2.107958 -0.553695,-0.795107 -1.332327,-2.144947 -2.335898,-4.0495 z"
       id="text1"
       style="font-size:112.113px;font-family:'Arial Rounded MT Bold';-inkscape-font-specification:'Arial Rounded MT Bold, ';display:inline;fill:#f8f9fa;fill-opacity:1;stroke-width:0.809482"
       aria-label="W" />
    <circle
       style="display:inline;fill:#f8f9fa;fill-opacity:1;stroke-width:0.529167"
       id="path2"
       cx="63.280617"
       cy="54.478214"
       r="10.709134" />
  </g>
</svg>
